<svg width="106" height="24" viewBox="0 0 106 24" fill="none" xmlns="http://www.w3.org/2000/svg">
<path d="M3.84592 23.204C3.318 23.2132 2.88467 23.1407 2.54592 22.9866C2.20718 22.8325 1.95601 22.6529 1.7924 22.4477C1.6448 22.2422 1.56988 22.0755 1.56764 21.9475C1.56094 21.5636 1.65232 21.298 1.84178 21.1506C2.03123 21.0033 2.42992 20.9243 3.03782 20.9137C3.38977 20.9076 3.87658 20.8351 4.49825 20.6962C5.13564 20.5411 5.83604 20.3288 6.59946 20.0594C7.36259 19.7741 8.14075 19.4324 8.93392 19.0345C9.7271 18.6366 10.4633 18.1837 11.1425 17.6758C11.8218 17.1679 12.3882 16.6139 12.8418 16.0139C13.3111 15.3976 13.6038 14.7444 13.7197 14.0543C13.2541 13.9664 12.7811 13.9106 12.3006 13.887C11.8358 13.8471 11.3715 13.8312 10.9076 13.8393C9.49977 13.8639 8.07064 14.0409 6.62017 14.3702C5.16942 14.6836 3.70336 15.0372 2.22201 15.4311C2.18184 15.8799 2.14897 16.2885 2.12339 16.657C2.09782 17.0255 2.08067 17.4179 2.07193 17.8341C2.04181 18.8588 1.93369 19.5408 1.74759 19.8801C1.5772 20.2031 1.38002 20.3666 1.15606 20.3705C0.804109 20.3766 0.52852 20.1734 0.329289 19.7608C0.130058 19.3482 0.0224845 18.686 0.00656788 17.7742C-0.0442535 14.8626 0.199862 12.346 0.738915 10.2242C1.27797 8.10249 2.10549 6.4638 3.2215 5.30815C4.3375 4.1525 5.71937 3.56029 7.36712 3.53153C8.53494 3.51114 9.44425 3.80732 10.095 4.42005C10.7618 5.03251 11.1056 5.93065 11.1262 7.11447C11.1405 7.93034 11.0113 8.78073 10.7387 9.66562C10.4658 10.5345 10.0557 11.3338 9.50835 12.0635C9.93889 11.9759 10.3618 11.9125 10.7772 11.8733C11.1923 11.818 11.5758 11.7873 11.9278 11.7812C13.1436 11.76 14.091 11.9435 14.7698 12.3317C15.4487 12.7199 15.795 13.3059 15.8087 14.0898C15.8246 15.0017 15.5836 15.862 15.0856 16.6708C14.6036 17.4794 13.9525 18.2188 13.132 18.8893C12.3276 19.5594 11.4501 20.1668 10.4994 20.7115C9.54851 21.2402 8.62019 21.6884 7.71448 22.0563C6.80876 22.4242 6.00549 22.7022 5.30467 22.8905C4.62012 23.0945 4.13387 23.199 3.84592 23.204ZM2.40196 13.3637C4.1721 13.0127 5.5405 12.5648 6.50713 12.0198C7.47377 11.4749 8.14291 10.8471 8.51457 10.1365C8.88594 9.40992 9.06381 8.59869 9.04818 7.70282C9.04315 7.41487 8.98999 7.11975 8.8887 6.81747C8.78713 6.4992 8.59841 6.23045 8.32254 6.01123C8.04668 5.79201 7.65278 5.68687 7.14086 5.69581C5.82906 5.7187 4.78369 6.33704 4.00476 7.55082C3.24182 8.76432 2.70755 10.7019 2.40196 13.3637Z" fill="#171717"/>
<path d="M22.8453 22.3923C21.9014 22.4087 21.1512 22.0618 20.5948 21.3514C20.0383 20.641 19.75 19.7099 19.7299 18.5581C19.7226 18.1421 19.7709 17.7012 19.8748 17.2353C19.9944 16.7532 20.1469 16.3184 20.3321 15.9311C20.2182 15.8211 20.1275 15.6707 20.0602 15.4798C19.9926 15.273 19.9561 15.0176 19.9508 14.7136C19.9343 13.7698 20.0792 12.9031 20.3855 12.1136C20.6918 11.3242 21.1038 10.6369 21.6217 10.0517C22.1393 9.45062 22.7153 8.9845 23.3496 8.65338C23.9999 8.32198 24.661 8.15041 25.3329 8.13868C26.4367 8.11942 27.3396 8.50372 28.0414 9.29159C28.743 10.0635 29.1079 11.2573 29.1361 12.873C29.1509 13.7209 29.038 14.587 28.7974 15.4713C28.5728 16.3554 28.2516 17.2091 27.8339 18.0325C27.4322 18.8557 26.957 19.5921 26.4083 20.2418C25.8755 20.8912 25.3006 21.4133 24.6834 21.8081C24.0819 22.1867 23.4692 22.3814 22.8453 22.3923ZM21.9016 15.0876C21.9999 15.2139 22.0508 15.3811 22.0544 15.589C22.0586 15.829 22.0148 16.0698 21.923 16.3114C21.8472 16.5528 21.7649 16.8823 21.6762 17.2999C21.5875 17.7175 21.5498 18.3103 21.5632 19.0781C21.5766 19.846 21.8873 20.2247 22.4952 20.214C23.1671 20.2023 23.7864 19.9275 24.3531 19.3895C24.9195 18.8355 25.4193 18.1307 25.8524 17.275C26.2856 16.4193 26.6137 15.5095 26.8369 14.5454C27.0759 13.5651 27.1878 12.643 27.1727 11.7791C27.1629 11.2192 27.0521 10.8291 26.8402 10.6088C26.6281 10.3724 26.25 10.259 25.7061 10.2685C25.1462 10.2783 24.5656 10.4804 23.9644 10.875C23.3789 11.2533 22.8918 11.7658 22.503 12.4127C22.1143 13.0596 21.9269 13.783 21.9408 14.5829C21.9439 14.7588 21.9308 14.9271 21.9016 15.0876Z" fill="#171717"/>
<path d="M36.1651 22.8799C34.9333 22.9014 33.9585 22.5183 33.2406 21.7307C32.5385 20.9269 32.1747 19.7971 32.1493 18.3413C32.1337 17.4454 32.2354 16.3955 32.4544 15.1915C32.6891 13.9712 32.9867 12.6858 33.3472 11.3353C33.7234 9.96853 34.1319 8.61719 34.5726 7.2813C35.0134 5.9454 35.4398 4.70577 35.8519 3.5624C36.2798 2.40276 36.6549 1.43607 36.9775 0.662318C37.1619 0.227033 37.4301 0.00631861 37.7821 0.000175358C38.262 -0.0082018 38.5071 0.283565 38.5174 0.875474C38.5208 1.06745 38.4397 1.46092 38.274 2.0559C38.1084 2.65088 37.8893 3.39082 37.6167 4.27571C37.3438 5.14461 37.0486 6.10991 36.7311 7.17161C36.4135 8.23331 36.0886 9.32715 35.7562 10.4531C35.4395 11.5628 35.1467 12.6641 34.8777 13.757C34.6085 14.8338 34.3941 15.8457 34.2346 16.7926C34.0751 17.7396 34.0012 18.549 34.0129 19.2209C34.0205 19.6528 34.1385 19.9948 34.3669 20.2469C34.611 20.4826 34.9331 20.597 35.333 20.5901C36.0689 20.5772 36.8023 20.4204 37.5332 20.1196C38.2797 19.8025 38.9932 19.422 39.6736 18.9781C40.3536 18.5181 40.9699 18.0673 41.5222 17.6256C42.0903 17.1676 42.5718 16.7911 42.9667 16.4962C43.3614 16.1853 43.6387 16.0284 43.7987 16.0256C44.1506 16.0195 44.3299 16.2084 44.3366 16.5923C44.3389 16.7203 44.2151 16.9625 43.9653 17.3189C43.7152 17.6593 43.3782 18.0653 42.9544 18.5367C42.5305 19.0082 42.035 19.4969 41.4677 20.0029C40.9162 20.4926 40.3322 20.9589 39.7159 21.4017C39.1152 21.8282 38.5052 22.1749 37.8857 22.4418C37.2826 22.7244 36.709 22.8704 36.1651 22.8799Z" fill="#171717"/>
<path d="M50.1005 22.2526C49.8285 22.2573 49.5945 22.1414 49.3983 21.9048C49.2021 21.6682 49.1 21.3179 49.0919 20.854C49.0824 20.3101 49.1489 19.5328 49.2913 18.5221C49.4496 17.5112 49.6823 16.171 49.9892 14.5013C49.5751 15.5327 49.1121 16.509 48.6001 17.43C48.1041 18.3508 47.5732 19.1042 47.0073 19.6902C46.4414 20.2761 45.8546 20.5744 45.2466 20.585C44.6547 20.5954 44.1228 20.3726 43.6507 19.9168C43.1947 19.4607 42.9565 18.6487 42.9361 17.4809C42.9247 16.825 42.9678 16.0881 43.0656 15.2703C43.163 14.4365 43.2926 13.6101 43.4543 12.7911C43.6161 11.9722 43.7793 11.2412 43.9441 10.5982C44.1087 9.93928 44.2603 9.45656 44.3989 9.15009C44.5065 8.89217 44.6155 8.72224 44.7261 8.6403C44.8364 8.54236 44.9875 8.49172 45.1795 8.48837C45.4035 8.48446 45.6451 8.57625 45.9044 8.76376C46.1637 8.95126 46.2973 9.26898 46.3051 9.71691C46.3071 9.82889 46.2557 10.0938 46.151 10.5117C46.062 10.9133 45.9426 11.4115 45.793 12.0062C45.6591 12.5846 45.518 13.2112 45.3697 13.8859C45.2215 14.5606 45.0972 15.2348 44.997 15.9087C44.9127 16.5823 44.8755 17.199 44.8853 17.7589C44.8906 18.0629 44.9269 18.3103 44.9942 18.5011C45.0616 18.692 45.2232 18.7852 45.4792 18.7807C45.7032 18.7768 45.9792 18.5479 46.3073 18.0941C46.6515 17.6401 47.0171 17.0416 47.4042 16.2987C47.807 15.5396 48.2164 14.7003 48.6324 13.7809C49.0644 12.8612 49.48 11.9178 49.8792 10.9507C50.2944 9.98333 50.6704 9.06462 51.0073 8.19461C51.1302 7.90442 51.2631 7.72608 51.406 7.65957C51.5486 7.57707 51.7079 7.53429 51.8838 7.53121C52.1718 7.52619 52.4298 7.6417 52.658 7.87776C52.9019 8.09753 53.027 8.39139 53.0334 8.75934C53.0376 8.9993 52.9969 9.41607 52.9112 10.0097C52.8416 10.603 52.7338 11.301 52.5877 12.1036C52.4574 12.89 52.304 13.7248 52.1274 14.608C51.9668 15.491 51.806 16.3659 51.6451 17.2329C51.4839 18.0838 51.3295 18.8626 51.1818 19.5693C51.0501 20.2757 50.9401 20.8457 50.8516 21.2793C50.7786 21.6807 50.6711 21.9386 50.5291 22.0531C50.4033 22.1833 50.2605 22.2498 50.1005 22.2526Z" fill="#171717"/>
<path d="M57.7085 20.9916C57.2445 20.9997 56.824 20.743 56.4468 20.2215C56.0697 19.7 55.8738 19.0233 55.8593 18.1915C55.8434 17.2796 55.9463 16.3016 56.1681 15.2576C56.406 14.2133 56.6995 13.152 57.0487 12.0738C57.3977 10.9795 57.7393 9.92539 58.0737 8.9114C58.15 8.70203 58.2594 8.5481 58.4017 8.4496C58.5597 8.33483 58.7987 8.27465 59.1186 8.26906C59.6945 8.25901 59.9874 8.53394 59.9972 9.09385C59.9994 9.22184 59.9404 9.51091 59.8203 9.96107C59.7001 10.4112 59.5418 10.9661 59.3452 11.6256C59.1647 12.2849 58.9772 13.0003 58.7826 13.7718C58.5878 14.5273 58.4171 15.2904 58.2705 16.0611C58.1239 16.8317 58.0244 17.5456 57.9718 18.2026C58.223 17.9262 58.5037 17.5052 58.8139 16.9397C59.1401 16.3739 59.489 15.7357 59.8606 15.0251C60.232 14.2985 60.6194 13.5717 61.0228 12.8445C61.4259 12.1014 61.8301 11.4222 62.2354 10.8071C62.6564 10.1756 63.0637 9.67242 63.4572 9.2975C63.8665 8.9063 64.2471 8.70762 64.599 8.70148C65.1109 8.69255 65.5457 8.84498 65.9032 9.15879C66.2764 9.45632 66.5659 9.99535 66.7715 10.7759C66.9929 11.5401 67.1159 12.6262 67.1405 14.0339C67.1536 14.7858 67.2379 15.4885 67.3933 16.1418C67.5647 16.795 67.8219 17.3185 68.1648 17.7126C68.5235 18.0904 68.9747 18.2746 69.5187 18.2651C70.3345 18.2508 71.0599 18.0942 71.6948 17.795C72.3294 17.4799 72.8754 17.1343 73.3329 16.7583C73.8062 16.366 74.2003 16.023 74.5152 15.7295C74.8298 15.42 75.0751 15.2636 75.2511 15.2606C75.619 15.2542 75.8064 15.4429 75.8131 15.8269C75.8159 15.9868 75.7004 16.2449 75.4665 16.601C75.2484 16.9409 74.9352 17.3304 74.5268 17.7696C74.1341 18.1925 73.6773 18.6086 73.1563 19.0177C72.6511 19.4106 72.1048 19.7402 71.5174 20.0065C70.9459 20.2725 70.3642 20.4106 69.7723 20.421C68.6685 20.4402 67.7609 20.2401 67.0494 19.8204C66.354 19.4005 65.8296 18.6975 65.4764 17.7115C65.1391 16.7253 64.956 15.4003 64.9269 13.7365C64.911 12.8247 64.8434 12.1617 64.7242 11.7478C64.6207 11.3175 64.4317 11.0328 64.1572 10.8935C63.9711 11.2328 63.7315 11.7171 63.4384 12.3463C63.1451 12.9595 62.805 13.6455 62.4182 14.4044C62.0474 15.163 61.6527 15.93 61.2342 16.7054C60.8314 17.4646 60.4196 18.1679 59.9988 18.8153C59.5781 19.4627 59.1712 19.9899 58.7782 20.3969C58.385 20.7878 58.0284 20.986 57.7085 20.9916Z" fill="#171717"/>
<path d="M90.1651 22.1293C89.6532 22.1383 89.115 22.0196 88.5507 21.7735C88.0026 21.543 87.5317 21.1511 87.1379 20.5979C86.7599 20.0284 86.5627 19.2718 86.5462 18.3279C86.527 17.2241 86.6026 16.0546 86.773 14.8194C86.9435 13.5843 87.17 12.3481 87.4524 11.111C87.7506 9.85761 88.0819 8.66764 88.4463 7.54111C88.8107 6.41458 89.1771 5.40803 89.5457 4.52146C89.9303 3.63462 90.2862 2.9403 90.6135 2.43851C90.9406 1.92073 91.216 1.65988 91.44 1.65597C91.744 1.65066 92.002 1.76618 92.2142 2.00251C92.4423 2.23856 92.5602 2.57256 92.5677 3.00449C92.5708 3.18046 92.4741 3.59822 92.2775 4.25775C92.0807 4.90128 91.8309 5.71376 91.528 6.6952C91.2251 7.67664 90.8995 8.73848 90.5514 9.88073C90.2193 11.0227 89.9033 12.1724 89.6035 13.3298C89.3036 14.4872 89.0587 15.5797 88.8686 16.6071C88.6785 17.6346 88.5897 18.5083 88.6023 19.2282C88.6059 19.4361 88.6654 19.6351 88.7807 19.8251C88.8958 19.9992 89.0813 20.0839 89.3372 20.0795C89.6892 20.0733 90.1917 19.9845 90.8448 19.8131C91.5139 19.6414 92.2384 19.4367 93.0184 19.1991C93.7981 18.9454 94.546 18.7004 95.2619 18.4638C95.9779 18.2273 96.5825 18.0247 97.0756 17.8561C97.5687 17.6874 97.8473 17.6026 97.9113 17.6015C98.1033 17.5981 98.2642 17.6513 98.3941 17.7611C98.5238 17.8548 98.5904 18.0057 98.5941 18.2136C98.5985 18.4696 98.4117 18.7689 98.0337 19.1116C97.6716 19.4539 97.1815 19.7985 96.5635 20.1454C95.9614 20.4919 95.2868 20.8077 94.5397 21.0928C93.7928 21.3939 93.037 21.6391 92.2722 21.8285C91.5234 22.0176 90.821 22.1179 90.1651 22.1293Z" fill="#171717"/>
<path d="M101.738 20.8952C101.434 20.9005 101.16 20.7933 100.916 20.5735C100.672 20.3377 100.545 19.9718 100.537 19.4759C100.53 19.124 100.57 18.6352 100.655 18.0096C100.74 17.3681 100.856 16.6699 101.003 15.9153C101.149 15.1606 101.304 14.4138 101.467 13.6748C101.646 12.9196 101.827 12.2443 102.008 11.649C102.19 11.0538 102.35 10.6109 102.489 10.3205C102.613 10.0943 102.731 9.94818 102.841 9.88224C102.968 9.81601 103.088 9.78192 103.2 9.77997C103.424 9.77606 103.617 9.8447 103.779 9.98588C103.958 10.1268 104.051 10.4052 104.058 10.8211C104.062 11.0611 104.021 11.4619 103.935 12.0235C103.865 12.5688 103.764 13.2106 103.633 13.9491C103.517 14.6712 103.386 15.4176 103.24 16.1882C103.109 16.9426 102.977 17.6651 102.845 18.3555C102.713 19.0459 102.611 19.6237 102.54 20.0891C102.48 20.3461 102.372 20.5481 102.214 20.6948C102.072 20.8253 101.914 20.8921 101.738 20.8952ZM103.858 7.58416C103.49 7.59058 103.136 7.48474 102.796 7.26664C102.472 7.04825 102.306 6.6911 102.297 6.19518C102.29 5.77924 102.38 5.44162 102.567 5.1823C102.771 4.92271 103.008 4.73455 103.278 4.61782C103.563 4.48482 103.81 4.4165 104.018 4.41287C104.226 4.40924 104.459 4.45318 104.717 4.5447C104.99 4.61994 105.225 4.77587 105.421 5.01248C105.617 5.23309 105.719 5.56737 105.726 6.0153C105.732 6.31925 105.633 6.59303 105.429 6.83662C105.225 7.06422 104.972 7.24466 104.67 7.37794C104.384 7.51095 104.114 7.57969 103.858 7.58416Z" fill="#171717"/>
</svg>
