<svg width="98" height="36" viewBox="0 0 98 36" fill="none" xmlns="http://www.w3.org/2000/svg">
<path d="M0.961626 31.7571V19.0225H8.85859V20.6765H2.88301V24.5566H8.29274V26.2044H2.88301V31.7571H0.961626Z" fill="#292929"/>
<path d="M14.3124 31.9499C13.3714 31.9499 12.561 31.7488 11.8811 31.3467C11.2054 30.9405 10.6831 30.3705 10.3142 29.6367C9.94938 28.8989 9.76699 28.0345 9.76699 27.0438C9.76699 26.0655 9.94938 25.2032 10.3142 24.4571C10.6831 23.7109 11.1971 23.1285 11.8563 22.7098C12.5195 22.2911 13.2947 22.0818 14.1818 22.0818C14.7207 22.0818 15.243 22.1709 15.7488 22.3491C16.2545 22.5274 16.7084 22.8072 17.1105 23.1886C17.5126 23.57 17.8298 24.0653 18.0619 24.6747C18.294 25.2799 18.4101 26.0157 18.4101 26.8821V27.5412H10.8178V26.1484H16.5882C16.5882 25.6592 16.4887 25.226 16.2898 24.8488C16.0908 24.4674 15.811 24.1669 15.4503 23.9472C15.0938 23.7275 14.6751 23.6176 14.1943 23.6176C13.6719 23.6176 13.2159 23.7461 12.8263 24.0032C12.4408 24.256 12.1423 24.5877 11.9309 24.998C11.7236 25.4043 11.62 25.8458 11.62 26.3225V27.4107C11.62 28.0491 11.7319 28.5921 11.9557 29.0398C12.1837 29.4875 12.5009 29.8295 12.9071 30.0658C13.3134 30.2979 13.788 30.414 14.3311 30.414C14.6834 30.414 15.0047 30.3643 15.2949 30.2648C15.585 30.1611 15.8358 30.0077 16.0472 29.8046C16.2587 29.6015 16.4203 29.3507 16.5323 29.0522L18.292 29.3694C18.151 29.8875 17.8982 30.3415 17.5334 30.7311C17.1727 31.1166 16.7188 31.4172 16.1716 31.6327C15.6286 31.8442 15.0088 31.9499 14.3124 31.9499Z" fill="#292929"/>
<path d="M22.1571 19.0225V31.7571H20.2979V19.0225H22.1571Z" fill="#292929"/>
<path d="M26.3424 19.0225V31.7571H24.4832V19.0225H26.3424Z" fill="#292929"/>
<path d="M32.6916 31.9499C31.7962 31.9499 31.0148 31.7447 30.3474 31.3343C29.68 30.9239 29.1618 30.3497 28.7929 29.6119C28.4239 28.874 28.2395 28.0117 28.2395 27.0251C28.2395 26.0344 28.4239 25.168 28.7929 24.426C29.1618 23.684 29.68 23.1078 30.3474 22.6974C31.0148 22.287 31.7962 22.0818 32.6916 22.0818C33.587 22.0818 34.3684 22.287 35.0358 22.6974C35.7032 23.1078 36.2214 23.684 36.5903 24.426C36.9593 25.168 37.1438 26.0344 37.1438 27.0251C37.1438 28.0117 36.9593 28.874 36.5903 29.6119C36.2214 30.3497 35.7032 30.9239 35.0358 31.3343C34.3684 31.7447 33.587 31.9499 32.6916 31.9499ZM32.6978 30.3891C33.2782 30.3891 33.759 30.2357 34.1404 29.929C34.5218 29.6222 34.8037 29.2139 34.9861 28.704C35.1726 28.1941 35.2659 27.6324 35.2659 27.0189C35.2659 26.4096 35.1726 25.8499 34.9861 25.34C34.8037 24.826 34.5218 24.4135 34.1404 24.1026C33.759 23.7917 33.2782 23.6363 32.6978 23.6363C32.1133 23.6363 31.6283 23.7917 31.2428 24.1026C30.8614 24.4135 30.5775 24.826 30.3909 25.34C30.2085 25.8499 30.1173 26.4096 30.1173 27.0189C30.1173 27.6324 30.2085 28.1941 30.3909 28.704C30.5775 29.2139 30.8614 29.6222 31.2428 29.929C31.6283 30.2357 32.1133 30.3891 32.6978 30.3891Z" fill="#292929"/>
<path d="M40.8239 31.7571L38.0133 22.2061H39.9347L41.8063 29.2201H41.8996L43.7775 22.2061H45.6988L47.5643 29.189H47.6575L49.5167 22.2061H51.4381L48.6338 31.7571H46.7373L44.7972 24.8612H44.6542L42.7142 31.7571H40.8239Z" fill="#292929"/>
<path d="M60.1844 24.5379L58.4993 24.8364C58.4288 24.6208 58.3169 24.4156 58.1635 24.2208C58.0143 24.026 57.8112 23.8664 57.5542 23.742C57.2972 23.6176 56.9759 23.5555 56.5904 23.5555C56.0639 23.5555 55.6245 23.6736 55.2721 23.9099C54.9198 24.142 54.7436 24.4426 54.7436 24.8115C54.7436 25.1307 54.8617 25.3877 55.098 25.5825C55.3343 25.7774 55.7157 25.937 56.2422 26.0613L57.7594 26.4096C58.6382 26.6127 59.2932 26.9257 59.7243 27.3485C60.1554 27.7713 60.371 28.3206 60.371 28.9963C60.371 29.5683 60.2051 30.0782 59.8735 30.5259C59.546 30.9695 59.088 31.3177 58.4993 31.5706C57.9148 31.8234 57.237 31.9499 56.466 31.9499C55.3965 31.9499 54.5239 31.7219 53.8482 31.2659C53.1725 30.8057 52.758 30.1528 52.6046 29.3072L54.4016 29.0336C54.5135 29.502 54.7436 29.8564 55.0918 30.0969C55.44 30.3332 55.8939 30.4513 56.4536 30.4513C57.0629 30.4513 57.55 30.3249 57.9148 30.072C58.2796 29.815 58.462 29.502 58.462 29.1331C58.462 28.8346 58.3501 28.5838 58.1262 28.3807C57.9065 28.1776 57.5687 28.0242 57.1127 27.9205L55.496 27.5661C54.6047 27.363 53.9456 27.0397 53.5186 26.5961C53.0958 26.1525 52.8844 25.5908 52.8844 24.911C52.8844 24.3472 53.0419 23.8539 53.357 23.4311C53.672 23.0083 54.1073 22.6787 54.6628 22.4424C55.2182 22.202 55.8546 22.0818 56.5717 22.0818C57.6039 22.0818 58.4164 22.3056 59.0092 22.7533C59.602 23.1969 59.9937 23.7917 60.1844 24.5379Z" fill="#292929"/>
<path d="M64.0993 26.0862V31.7571H62.2401V19.0225H64.0744V23.7607H64.1925C64.4164 23.2466 64.7584 22.8383 65.2185 22.5357C65.6787 22.2331 66.2797 22.0818 67.0218 22.0818C67.6767 22.0818 68.2488 22.2165 68.7379 22.4859C69.2312 22.7554 69.6126 23.1575 69.8821 23.6923C70.1557 24.2229 70.2925 24.8861 70.2925 25.682V31.7571H68.4333V25.9059C68.4333 25.2053 68.2529 24.6623 67.8923 24.2768C67.5316 23.8871 67.03 23.6923 66.3875 23.6923C65.9481 23.6923 65.5543 23.7855 65.2061 23.9721C64.862 24.1586 64.5905 24.4322 64.3915 24.7929C64.1967 25.1494 64.0993 25.5805 64.0993 26.0862Z" fill="#292929"/>
<path d="M72.5984 31.7571V22.2061H74.4576V31.7571H72.5984ZM73.5373 20.7324C73.214 20.7324 72.9362 20.6247 72.7041 20.4091C72.4761 20.1894 72.3621 19.9282 72.3621 19.6256C72.3621 19.3189 72.4761 19.0577 72.7041 18.8421C72.9362 18.6224 73.214 18.5126 73.5373 18.5126C73.8606 18.5126 74.1363 18.6224 74.3643 18.8421C74.5964 19.0577 74.7125 19.3189 74.7125 19.6256C74.7125 19.9282 74.5964 20.1894 74.3643 20.4091C74.1363 20.6247 73.8606 20.7324 73.5373 20.7324Z" fill="#292929"/>
<path d="M76.7837 35.3387V22.2061H78.5994V23.7544H78.7548C78.8626 23.5555 79.0181 23.3254 79.2212 23.0642C79.4243 22.8031 79.7062 22.5751 80.0668 22.3802C80.4275 22.1813 80.9042 22.0818 81.497 22.0818C82.268 22.0818 82.9562 22.2766 83.5614 22.6663C84.1666 23.0559 84.6413 23.6176 84.9853 24.3514C85.3336 25.0851 85.5077 25.9681 85.5077 27.0003C85.5077 28.0325 85.3356 28.9175 84.9916 29.6554C84.6475 30.3891 84.1749 30.955 83.5738 31.3529C82.9728 31.7467 82.2867 31.9436 81.5157 31.9436C80.9353 31.9436 80.4607 31.8462 80.0917 31.6514C79.7269 31.4566 79.4409 31.2286 79.2336 30.9674C79.0264 30.7062 78.8668 30.4741 78.7548 30.271H78.6429V35.3387H76.7837ZM78.6056 26.9816C78.6056 27.6532 78.703 28.2418 78.8978 28.7475C79.0927 29.2533 79.3746 29.6492 79.7435 29.9352C80.1124 30.2171 80.5643 30.358 81.099 30.358C81.6545 30.358 82.1188 30.2109 82.4919 29.9165C82.865 29.6181 83.1469 29.2139 83.3376 28.704C83.5324 28.1941 83.6298 27.62 83.6298 26.9816C83.6298 26.3515 83.5345 25.7857 83.3438 25.2841C83.1572 24.7825 82.8753 24.3866 82.4981 24.0964C82.125 23.8062 81.6587 23.6612 81.099 23.6612C80.5601 23.6612 80.1041 23.8 79.7311 24.0778C79.3621 24.3555 79.0823 24.7431 78.8916 25.2406C78.7009 25.738 78.6056 26.3184 78.6056 26.9816Z" fill="#292929"/>
<path d="M86.8113 18.5512V17.6632H90.9948V18.5512H89.4353V22.7571H88.3708V18.5512H86.8113Z" fill="#292929"/>
<path d="M91.6838 17.6632H93.0119L94.4147 21.0857H94.4744L95.8772 17.6632H97.2054V22.7571H96.1608V19.4416H96.1185L94.8003 22.7322H94.0889L92.7707 19.4292H92.7284V22.7571H91.6838V17.6632Z" fill="#292929"/>
<path d="M3.14044 0L6.37229 10.1591H6.49634L9.73471 0H12.8686L8.25916 13.3714H4.61599L0 0H3.14044Z" fill="#292929"/>
<path d="M15.6207 13.5607C14.9809 13.5607 14.4107 13.4497 13.9101 13.2277C13.4096 13.0014 13.0135 12.6684 12.7219 12.2288C12.4346 11.7848 12.2909 11.232 12.2909 10.5704C12.2909 10.0133 12.3932 9.54537 12.5978 9.16669C12.8024 8.78801 13.0809 8.48333 13.4335 8.25264C13.7861 8.02194 14.1865 7.84784 14.6348 7.73032C15.0875 7.61279 15.562 7.53009 16.0582 7.48221C16.6414 7.42128 17.1115 7.36469 17.4684 7.31246C17.8253 7.25588 18.0843 7.17318 18.2454 7.06436C18.4064 6.95554 18.4869 6.7945 18.4869 6.58122V6.54204C18.4869 6.12854 18.3564 5.80862 18.0952 5.58228C17.8384 5.35594 17.4728 5.24277 16.9983 5.24277C16.4978 5.24277 16.0995 5.35377 15.8035 5.57575C15.5076 5.79338 15.3117 6.0676 15.2159 6.3984L12.6435 6.18948C12.7741 5.5801 13.0309 5.05343 13.4139 4.60946C13.797 4.16114 14.291 3.81728 14.896 3.57788C15.5054 3.33413 16.2105 3.21226 17.0114 3.21226C17.5685 3.21226 18.1017 3.27755 18.611 3.40813C19.1246 3.53871 19.5795 3.74111 19.9756 4.01532C20.376 4.28954 20.6916 4.64211 20.9223 5.07302C21.1529 5.49958 21.2683 6.01102 21.2683 6.60733V13.3714H18.6306V11.9807H18.5522C18.3912 12.2941 18.1757 12.5705 17.9059 12.8099C17.636 13.0449 17.3117 13.2299 16.933 13.3648C16.5544 13.4954 16.1169 13.5607 15.6207 13.5607ZM16.4173 11.6412C16.8264 11.6412 17.1877 11.5607 17.5011 11.3996C17.8145 11.2342 18.0604 11.0122 18.2388 10.7336C18.4173 10.4551 18.5065 10.1395 18.5065 9.78695V8.72272C18.4195 8.77931 18.2998 8.83154 18.1474 8.87942C17.9994 8.92294 17.8319 8.96429 17.6447 9.00347C17.4575 9.03829 17.2704 9.07093 17.0832 9.1014C16.8961 9.12752 16.7263 9.15146 16.574 9.17322C16.2475 9.2211 15.9624 9.29727 15.7187 9.40174C15.4749 9.5062 15.2856 9.64766 15.1506 9.82612C15.0157 10.0002 14.9482 10.2179 14.9482 10.479C14.9482 10.8577 15.0853 11.1472 15.3596 11.3474C15.6381 11.5432 15.9907 11.6412 16.4173 11.6412Z" fill="#292929"/>
<path d="M22.8746 13.3714V3.34284H25.5253V5.11219H25.6428C25.8518 4.52459 26.2 4.06103 26.6875 3.72152C27.175 3.38201 27.7582 3.21226 28.4372 3.21226C29.125 3.21226 29.7104 3.38419 30.1935 3.72805C30.6767 4.06756 30.9988 4.52894 31.1598 5.11219H31.2643C31.4689 4.53764 31.8388 4.07844 32.3742 3.73458C32.914 3.38637 33.5516 3.21226 34.2872 3.21226C35.223 3.21226 35.9826 3.51042 36.5658 4.10673C37.1534 4.69869 37.4472 5.53875 37.4472 6.62692V13.3714H34.6724V7.17535C34.6724 6.61821 34.5244 6.20036 34.2285 5.92179C33.9325 5.64322 33.5625 5.50393 33.1185 5.50393C32.6136 5.50393 32.2197 5.66498 31.9368 5.98708C31.6539 6.30482 31.5124 6.72485 31.5124 7.24717V13.3714H28.8159V7.11659C28.8159 6.62474 28.6745 6.233 28.3915 5.94137C28.113 5.64975 27.7452 5.50393 27.2881 5.50393C26.9791 5.50393 26.7005 5.58228 26.4524 5.73898C26.2087 5.89132 26.015 6.10678 25.8714 6.38535C25.7277 6.65956 25.6559 6.98166 25.6559 7.35163V13.3714H22.8746Z" fill="#292929"/>
<path d="M43.6238 13.5672C42.6096 13.5672 41.7326 13.3518 40.9926 12.9209C40.257 12.4856 39.689 11.8806 39.2885 11.1058C38.8881 10.3267 38.6879 9.4235 38.6879 8.39627C38.6879 7.36034 38.8881 6.45499 39.2885 5.68022C39.689 4.90109 40.257 4.29607 40.9926 3.86516C41.7326 3.42989 42.6096 3.21226 43.6238 3.21226C44.638 3.21226 45.5128 3.42989 46.2484 3.86516C46.9884 4.29607 47.5586 4.90109 47.959 5.68022C48.3595 6.45499 48.5597 7.36034 48.5597 8.39627C48.5597 9.4235 48.3595 10.3267 47.959 11.1058C47.5586 11.8806 46.9884 12.4856 46.2484 12.9209C45.5128 13.3518 44.638 13.5672 43.6238 13.5672ZM43.6368 11.4127C44.0982 11.4127 44.4834 11.2821 44.7925 11.0209C45.1015 10.7554 45.3344 10.3941 45.4911 9.93711C45.6521 9.48008 45.7327 8.95994 45.7327 8.37669C45.7327 7.79343 45.6521 7.27329 45.4911 6.81626C45.3344 6.35923 45.1015 5.99796 44.7925 5.73245C44.4834 5.46694 44.0982 5.33418 43.6368 5.33418C43.1711 5.33418 42.7794 5.46694 42.4616 5.73245C42.1482 5.99796 41.911 6.35923 41.75 6.81626C41.5933 7.27329 41.5149 7.79343 41.5149 8.37669C41.5149 8.95994 41.5933 9.48008 41.75 9.93711C41.911 10.3941 42.1482 10.7554 42.4616 11.0209C42.7794 11.2821 43.1711 11.4127 43.6368 11.4127Z" fill="#292929"/>
<path d="M60.5089 6.05094L60.0712 8.46432C59.0141 8.19641 56.0267 7.27373 56.0267 7.27373C53.882 6.06704 52.6798 4.28456 52.4161 1.62418H57.0601L60.5089 6.05094Z" fill="#292929"/>
<path d="M60.0545 8.49419L60.4965 6.08081C59.342 6.34872 56.0193 7.27203 56.0193 7.27203C53.4355 8.47872 51.5841 10.2606 50.3509 12.921H54.9935L60.0545 8.49419Z" fill="#292929"/>
<path d="M67.6951 6.05094L67.2574 8.46432C66.2003 8.19641 63.2129 7.27373 63.2129 7.27373C61.0682 6.06704 59.866 4.28456 59.6022 1.62418H64.2463L67.6951 6.05094Z" fill="#292929"/>
<path d="M67.2395 8.49419L67.6815 6.08081C66.5271 6.34872 63.2044 7.27203 63.2044 7.27203C60.6206 8.47872 58.7691 10.2606 57.5359 12.921H62.1786L67.2395 8.49419Z" fill="#292929"/>
<path d="M74.876 6.0509L74.4384 8.46426C73.3813 8.19635 70.3938 7.27368 70.3938 7.27368C68.249 6.067 67.0467 4.28454 66.7829 1.62418H71.4269L74.876 6.0509Z" fill="#292929"/>
<path d="M74.4213 8.49419L74.8632 6.08081C73.7088 6.34872 70.3861 7.27203 70.3861 7.27203C67.8023 8.47872 65.9508 10.2606 64.7177 12.921H69.3603L74.4213 8.49419Z" fill="#292929"/>
</svg>
