<svg width="107" height="39" viewBox="0 0 107 39" fill="none" xmlns="http://www.w3.org/2000/svg">
<path d="M1.04503 34.5994V20.7602H9.62694V22.5577H3.13307V26.7743H9.01202V28.565H3.13307V34.5994H1.04503Z" fill="#8E8A88"/>
<path d="M15.5538 34.8089C14.5312 34.8089 13.6505 34.5904 12.9117 34.1534C12.1773 33.7119 11.6097 33.0925 11.2088 32.2951C10.8124 31.4932 10.6141 30.5539 10.6141 29.4773C10.6141 28.4141 10.8124 27.4771 11.2088 26.6662C11.6097 25.8553 12.1683 25.2223 12.8846 24.7673C13.6054 24.3123 14.4478 24.0849 15.4119 24.0849C15.9975 24.0849 16.5652 24.1817 17.1148 24.3754C17.6644 24.5691 18.1577 24.8732 18.5946 25.2877C19.0316 25.7021 19.3762 26.2405 19.6285 26.9027C19.8808 27.5604 20.0069 28.36 20.0069 29.3016V30.0179H11.7561V28.5042H18.027C18.027 27.9726 17.9189 27.5018 17.7027 27.0919C17.4864 26.6774 17.1823 26.3508 16.7904 26.1121C16.403 25.8733 15.948 25.7539 15.4254 25.7539C14.8578 25.7539 14.3622 25.8936 13.9388 26.1729C13.5198 26.4477 13.1955 26.8081 12.9657 27.2541C12.7405 27.6956 12.6278 28.1753 12.6278 28.6934V29.8759C12.6278 30.5697 12.7495 31.1599 12.9927 31.6464C13.2405 32.1329 13.5851 32.5046 14.0266 32.7614C14.4681 33.0136 14.9839 33.1398 15.5741 33.1398C15.957 33.1398 16.3061 33.0857 16.6215 32.9776C16.9368 32.865 17.2094 32.6983 17.4391 32.4776C17.6689 32.2568 17.8446 31.9843 17.9662 31.6599L19.8785 32.0045C19.7254 32.5677 19.4506 33.0609 19.0541 33.4844C18.6622 33.9034 18.1689 34.23 17.5743 34.4642C16.9841 34.694 16.3106 34.8089 15.5538 34.8089Z" fill="#8E8A88"/>
<path d="M24.0789 20.7602V34.5994H22.0584V20.7602H24.0789Z" fill="#8E8A88"/>
<path d="M28.6272 20.7602V34.5994H26.6068V20.7602H28.6272Z" fill="#8E8A88"/>
<path d="M35.5272 34.8089C34.5541 34.8089 33.7049 34.5859 32.9796 34.1399C32.2543 33.6939 31.6912 33.07 31.2903 32.2681C30.8893 31.4662 30.6888 30.5292 30.6888 29.457C30.6888 28.3803 30.8893 27.4388 31.2903 26.6324C31.6912 25.826 32.2543 25.1998 32.9796 24.7538C33.7049 24.3078 34.5541 24.0849 35.5272 24.0849C36.5002 24.0849 37.3494 24.3078 38.0747 24.7538C38.8 25.1998 39.3631 25.826 39.764 26.6324C40.165 27.4388 40.3655 28.3803 40.3655 29.457C40.3655 30.5292 40.165 31.4662 39.764 32.2681C39.3631 33.07 38.8 33.6939 38.0747 34.1399C37.3494 34.5859 36.5002 34.8089 35.5272 34.8089ZM35.5339 33.1128C36.1646 33.1128 36.6872 32.9461 37.1016 32.6127C37.5161 32.2793 37.8224 31.8356 38.0206 31.2815C38.2234 30.7274 38.3247 30.117 38.3247 29.4502C38.3247 28.788 38.2234 28.1798 38.0206 27.6257C37.8224 27.0671 37.5161 26.6189 37.1016 26.281C36.6872 25.9431 36.1646 25.7742 35.5339 25.7742C34.8987 25.7742 34.3716 25.9431 33.9527 26.281C33.5382 26.6189 33.2296 27.0671 33.0269 27.6257C32.8287 28.1798 32.7296 28.788 32.7296 29.4502C32.7296 30.117 32.8287 30.7274 33.0269 31.2815C33.2296 31.8356 33.5382 32.2793 33.9527 32.6127C34.3716 32.9461 34.8987 33.1128 35.5339 33.1128Z" fill="#8E8A88"/>
<path d="M44.3648 34.5994L41.3104 24.22H43.3985L45.4324 31.8424H45.5338L47.5745 24.22H49.6626L51.6898 31.8086H51.7912L53.8116 24.22H55.8997L52.8521 34.5994H50.7911L48.6827 27.1054H48.5273L46.419 34.5994H44.3648Z" fill="#8E8A88"/>
<path d="M65.4046 26.754L63.5733 27.0784C63.4967 26.8441 63.3751 26.6211 63.2084 26.4094C63.0462 26.1977 62.8255 26.0242 62.5462 25.8891C62.2669 25.7539 61.9177 25.6864 61.4988 25.6864C60.9267 25.6864 60.4491 25.8147 60.0662 26.0715C59.6833 26.3238 59.4918 26.6504 59.4918 27.0514C59.4918 27.3982 59.6202 27.6775 59.877 27.8893C60.1338 28.101 60.5482 28.2744 61.1204 28.4096L62.7692 28.788C63.7242 29.0088 64.436 29.3489 64.9045 29.8084C65.373 30.2679 65.6073 30.8648 65.6073 31.5991C65.6073 32.2208 65.4271 32.7749 65.0667 33.2614C64.7108 33.7434 64.213 34.1219 63.5733 34.3967C62.9381 34.6715 62.2016 34.8089 61.3636 34.8089C60.2014 34.8089 59.2531 34.5611 58.5188 34.0655C57.7845 33.5655 57.334 32.856 57.1673 31.937L59.1202 31.6396C59.2418 32.1487 59.4918 32.5339 59.8703 32.7952C60.2487 33.0519 60.742 33.1803 61.3501 33.1803C62.0124 33.1803 62.5417 33.0429 62.9381 32.7681C63.3345 32.4888 63.5328 32.1487 63.5328 31.7478C63.5328 31.4234 63.4111 31.1508 63.1679 30.9301C62.9291 30.7094 62.562 30.5427 62.0664 30.4301L60.3095 30.0449C59.3409 29.8241 58.6246 29.4728 58.1606 28.9907C57.7011 28.5087 57.4714 27.8983 57.4714 27.1595C57.4714 26.5468 57.6426 26.0107 57.9849 25.5512C58.3273 25.0917 58.8003 24.7336 59.404 24.4768C60.0076 24.2155 60.6992 24.0849 61.4785 24.0849C62.6002 24.0849 63.4832 24.3281 64.1274 24.8146C64.7716 25.2967 65.1973 25.9431 65.4046 26.754Z" fill="#8E8A88"/>
<path d="M69.659 28.4366V34.5994H67.6385V20.7602H69.6319V25.9093H69.7603C70.0036 25.3507 70.3752 24.907 70.8753 24.5781C71.3753 24.2493 72.0286 24.0849 72.835 24.0849C73.5467 24.0849 74.1684 24.2313 74.7 24.5241C75.2361 24.8169 75.6505 25.2539 75.9434 25.835C76.2407 26.4117 76.3894 27.1324 76.3894 27.9974V34.5994H74.3689V28.2407C74.3689 27.4793 74.1729 26.8892 73.781 26.4702C73.3891 26.0468 72.844 25.835 72.1457 25.835C71.6682 25.835 71.2402 25.9364 70.8618 26.1391C70.4879 26.3418 70.1928 26.6392 69.9766 27.0311C69.7648 27.4185 69.659 27.887 69.659 28.4366Z" fill="#8E8A88"/>
<path d="M78.8953 34.5994V24.22H80.9157V34.5994H78.8953ZM79.9156 22.6185C79.5642 22.6185 79.2624 22.5014 79.0101 22.2671C78.7624 22.0283 78.6385 21.7445 78.6385 21.4157C78.6385 21.0823 78.7624 20.7985 79.0101 20.5642C79.2624 20.3255 79.5642 20.2061 79.9156 20.2061C80.267 20.2061 80.5666 20.3255 80.8144 20.5642C81.0667 20.7985 81.1928 21.0823 81.1928 21.4157C81.1928 21.7445 81.0667 22.0283 80.8144 22.2671C80.5666 22.5014 80.267 22.6185 79.9156 22.6185Z" fill="#8E8A88"/>
<path d="M83.4436 38.4916V24.22H85.4168V25.9026H85.5857C85.7028 25.6864 85.8718 25.4363 86.0925 25.1525C86.3133 24.8687 86.6196 24.6209 87.0115 24.4092C87.4035 24.193 87.9215 24.0849 88.5657 24.0849C89.4036 24.0849 90.1515 24.2966 90.8092 24.72C91.4669 25.1435 91.9827 25.7539 92.3566 26.5513C92.7351 27.3487 92.9243 28.3082 92.9243 29.43C92.9243 30.5517 92.7373 31.5135 92.3634 32.3154C91.9895 33.1128 91.4759 33.7277 90.8227 34.1601C90.1695 34.5881 89.4239 34.8021 88.586 34.8021C87.9553 34.8021 87.4395 34.6962 87.0386 34.4845C86.6421 34.2728 86.3313 34.025 86.106 33.7412C85.8808 33.4574 85.7073 33.2051 85.5857 32.9844H85.4641V38.4916H83.4436ZM85.4235 29.4097C85.4235 30.1395 85.5294 30.7792 85.7411 31.3288C85.9529 31.8784 86.2592 32.3086 86.6601 32.6195C87.0611 32.9258 87.5521 33.079 88.1333 33.079C88.7369 33.079 89.2415 32.919 89.6469 32.5992C90.0524 32.2748 90.3587 31.8356 90.5659 31.2815C90.7777 30.7274 90.8835 30.1034 90.8835 29.4097C90.8835 28.7249 90.7799 28.11 90.5727 27.5649C90.37 27.0198 90.0636 26.5896 89.6537 26.2743C89.2482 25.9589 88.7414 25.8012 88.1333 25.8012C87.5476 25.8012 87.0521 25.9521 86.6466 26.254C86.2457 26.5558 85.9416 26.977 85.7344 27.5176C85.5271 28.0582 85.4235 28.6889 85.4235 29.4097Z" fill="#8E8A88"/>
<path d="M94.7949 20.0287V19.0637H99.3413V20.0287H97.6465V24.5994H96.4897V20.0287H94.7949Z" fill="#8E8A88"/>
<path d="M100.09 19.0637H101.533L103.058 22.783H103.123L104.647 19.0637H106.091V24.5994H104.955V20.9963H104.909L103.477 24.5724H102.704L101.271 20.9828H101.225V24.5994H100.09V19.0637Z" fill="#8E8A88"/>
<path d="M3.41283 0L6.92499 11.0403H7.0598L10.5791 0H13.9848L8.97553 14.5311H5.01636L0 0H3.41283Z" fill="#8E8A88"/>
<path d="M16.9756 14.7369C16.2803 14.7369 15.6606 14.6163 15.1166 14.375C14.5727 14.1291 14.1422 13.7672 13.8253 13.2895C13.5131 12.807 13.357 12.2062 13.357 11.4873C13.357 10.8818 13.4682 10.3733 13.6905 9.96177C13.9128 9.55025 14.2155 9.21914 14.5987 8.96844C14.9818 8.71774 15.417 8.52853 15.9042 8.40081C16.3962 8.2731 16.9117 8.18322 17.451 8.13119C18.0848 8.06497 18.5957 8.00348 18.9836 7.94671C19.3714 7.88522 19.6529 7.79535 19.8279 7.67709C20.0029 7.55884 20.0904 7.38382 20.0904 7.15204V7.10947C20.0904 6.6601 19.9485 6.31243 19.6647 6.06646C19.3856 5.8205 18.9883 5.69751 18.4727 5.69751C17.9287 5.69751 17.4959 5.81813 17.1743 6.05937C16.8526 6.29588 16.6398 6.59388 16.5357 6.95338L13.7402 6.72633C13.8821 6.0641 14.1611 5.49175 14.5774 5.00927C14.9937 4.52206 15.5305 4.14837 16.188 3.88821C16.8503 3.62332 17.6165 3.49088 18.4869 3.49088C19.0924 3.49088 19.6718 3.56183 20.2252 3.70374C20.7834 3.84564 21.2777 4.0656 21.7082 4.3636C22.1433 4.6616 22.4863 5.04474 22.737 5.51303C22.9877 5.97659 23.113 6.53239 23.113 7.18042V14.5311H20.2465V13.0198H20.1614C19.9864 13.3604 19.7522 13.6608 19.459 13.9209C19.1657 14.1764 18.8133 14.3774 18.4018 14.524C17.9902 14.6659 17.5148 14.7369 16.9756 14.7369ZM17.8412 12.6509C18.2859 12.6509 18.6785 12.5634 19.019 12.3884C19.3596 12.2086 19.6269 11.9674 19.8208 11.6646C20.0147 11.3619 20.1117 11.019 20.1117 10.6358V9.4793C20.0171 9.54079 19.887 9.59755 19.7215 9.64958C19.5606 9.69688 19.3785 9.74182 19.1751 9.78439C18.9717 9.82223 18.7683 9.85771 18.5649 9.89082C18.3615 9.9192 18.1771 9.94522 18.0115 9.96887C17.6567 10.0209 17.3469 10.1037 17.082 10.2172C16.8171 10.3307 16.6114 10.4845 16.4647 10.6784C16.3181 10.8676 16.2448 11.1041 16.2448 11.3879C16.2448 11.7995 16.3938 12.114 16.6918 12.3316C16.9945 12.5445 17.3777 12.6509 17.8412 12.6509Z" fill="#8E8A88"/>
<path d="M24.8586 14.5311V3.63278H27.7393V5.55561H27.867C28.094 4.91703 28.4725 4.41326 29.0022 4.04431C29.532 3.67536 30.1659 3.49088 30.9038 3.49088C31.6511 3.49088 32.2874 3.67772 32.8124 4.0514C33.3375 4.42036 33.6875 4.92176 33.8625 5.55561H33.976C34.1984 4.93122 34.6004 4.43219 35.1822 4.0585C35.7688 3.68009 36.4617 3.49088 37.2612 3.49088C38.2781 3.49088 39.1036 3.8149 39.7374 4.46293C40.376 5.10624 40.6953 6.01916 40.6953 7.20171V14.5311H37.6798V7.79771C37.6798 7.19225 37.5189 6.73815 37.1973 6.43542C36.8756 6.13269 36.4736 5.98132 35.9911 5.98132C35.4424 5.98132 35.0143 6.15634 34.7069 6.50637C34.3994 6.85168 34.2457 7.30814 34.2457 7.87576V14.5311H31.3153V7.73386C31.3153 7.19934 31.1616 6.77363 30.8541 6.45671C30.5514 6.13978 30.1517 5.98132 29.655 5.98132C29.3192 5.98132 29.0164 6.06647 28.7468 6.23675C28.4819 6.40231 28.2714 6.63645 28.1153 6.93918C27.9592 7.23719 27.8812 7.58722 27.8812 7.98929V14.5311H24.8586Z" fill="#8E8A88"/>
<path d="M47.4075 14.744C46.3054 14.744 45.3523 14.5098 44.5481 14.0416C43.7487 13.5685 43.1315 12.911 42.6963 12.0691C42.2611 11.2224 42.0435 10.2409 42.0435 9.12453C42.0435 7.99875 42.2611 7.01487 42.6963 6.17289C43.1315 5.32619 43.7487 4.66869 44.5481 4.20041C45.3523 3.72739 46.3054 3.49088 47.4075 3.49088C48.5097 3.49088 49.4604 3.72739 50.2598 4.20041C51.064 4.66869 51.6836 5.32619 52.1188 6.17289C52.554 7.01487 52.7716 7.99875 52.7716 9.12453C52.7716 10.2409 52.554 11.2224 52.1188 12.0691C51.6836 12.911 51.064 13.5685 50.2598 14.0416C49.4604 14.5098 48.5097 14.744 47.4075 14.744ZM47.4217 12.4026C47.9231 12.4026 48.3418 12.2606 48.6776 11.9768C49.0134 11.6883 49.2665 11.2957 49.4368 10.799C49.6118 10.3023 49.6993 9.73709 49.6993 9.10325C49.6993 8.4694 49.6118 7.90414 49.4368 7.40747C49.2665 6.9108 49.0134 6.5182 48.6776 6.22966C48.3418 5.94112 47.9231 5.79684 47.4217 5.79684C46.9156 5.79684 46.4899 5.94112 46.1446 6.22966C45.804 6.5182 45.5462 6.9108 45.3712 7.40747C45.2009 7.90414 45.1158 8.4694 45.1158 9.10325C45.1158 9.73709 45.2009 10.3023 45.3712 10.799C45.5462 11.2957 45.804 11.6883 46.1446 11.9768C46.4899 12.2606 46.9156 12.4026 47.4217 12.4026Z" fill="#8E8A88"/>
<path d="M65.7574 7.04889L65.2817 9.6716C64.1329 9.38045 60.8864 8.37774 60.8864 8.37774C58.5557 7.06639 57.2492 5.1293 56.9626 2.23817H62.0095L65.7574 7.04889Z" fill="#8E8A88"/>
<path d="M65.2634 9.70463L65.7437 7.08192C64.4892 7.37307 60.8782 8.37646 60.8782 8.37646C58.0703 9.68781 56.0583 11.6242 54.7181 14.5153H59.7634L65.2634 9.70463Z" fill="#8E8A88"/>
<path d="M73.5667 7.04889L73.091 9.6716C71.9423 9.38045 68.6957 8.37774 68.6957 8.37774C66.365 7.06639 65.0585 5.1293 64.7719 2.23817H69.8188L73.5667 7.04889Z" fill="#8E8A88"/>
<path d="M73.0719 9.70463L73.5522 7.08192C72.2977 7.37307 68.6868 8.37646 68.6868 8.37646C65.8789 9.68781 63.8668 11.6242 62.5266 14.5153H67.572L73.0719 9.70463Z" fill="#8E8A88"/>
<path d="M81.3702 7.04884L80.8947 9.67153C79.7459 9.38039 76.4993 8.37769 76.4993 8.37769C74.1685 7.06635 72.8619 5.12928 72.5751 2.23817H77.622L81.3702 7.04884Z" fill="#8E8A88"/>
<path d="M80.8761 9.70463L81.3564 7.08192C80.1019 7.37307 76.491 8.37646 76.491 8.37646C73.6831 9.68781 71.671 11.6242 70.3309 14.5153H75.3762L80.8761 9.70463Z" fill="#8E8A88"/>
</svg>
