<svg xmlns="http://www.w3.org/2000/svg" width="60" height="14" viewBox="0 0 60 14" fill="none">
  <path d="M2.17449 13.1196C1.876 13.1248 1.63099 13.0838 1.43947 12.9967C1.24794 12.9095 1.10593 12.808 1.01343 12.692C0.92997 12.5758 0.88761 12.4815 0.886347 12.4092C0.882558 12.1921 0.934223 12.0419 1.04134 11.9586C1.14846 11.8753 1.37388 11.8307 1.71759 11.8247C1.91658 11.8212 2.19182 11.7802 2.54332 11.7017C2.9037 11.6139 3.29971 11.4939 3.73134 11.3416C4.16282 11.1803 4.60279 10.9871 5.05125 10.7622C5.49972 10.5372 5.91597 10.2811 6.30001 9.99392C6.68405 9.70673 7.00431 9.39352 7.26077 9.05427C7.52613 8.70583 7.69159 8.3365 7.75716 7.9463C7.49391 7.89661 7.22644 7.86509 6.95478 7.85173C6.692 7.82918 6.42945 7.82019 6.16715 7.82477C5.37118 7.83866 4.56315 7.93872 3.74305 8.12494C2.9228 8.30212 2.09389 8.50207 1.25633 8.72479C1.23362 8.97852 1.21503 9.20957 1.20057 9.41792C1.18611 9.62627 1.17641 9.84811 1.17147 10.0834C1.15444 10.6628 1.09331 11.0484 0.988088 11.2402C0.89175 11.4229 0.780266 11.5153 0.653635 11.5175C0.454644 11.521 0.298826 11.4061 0.186181 11.1728C0.0735351 10.9395 0.0127128 10.5651 0.00371349 10.0495C-0.025021 8.40334 0.113002 6.98042 0.417784 5.78079C0.722565 4.58116 1.19045 3.65464 1.82144 3.00124C2.45243 2.34783 3.23374 2.01299 4.16538 1.99673C4.82567 1.98521 5.33979 2.15266 5.70775 2.49911C6.08476 2.84539 6.2791 3.3532 6.29078 4.02253C6.29884 4.48383 6.2258 4.96464 6.07167 5.46496C5.91739 5.95623 5.68551 6.40814 5.37603 6.8207C5.61946 6.77121 5.8586 6.73537 6.09346 6.71317C6.32816 6.68193 6.545 6.66458 6.74399 6.6611C7.43141 6.6491 7.96705 6.75285 8.35089 6.97235C8.73472 7.19184 8.93051 7.52319 8.93825 7.9664C8.94725 8.48197 8.81097 8.9684 8.52943 9.42571C8.25692 9.88286 7.88874 10.301 7.42487 10.68C6.97004 11.0589 6.47389 11.4023 5.93639 11.7103C5.39874 12.0092 4.87387 12.2627 4.36178 12.4707C3.84968 12.6786 3.39551 12.8359 2.99927 12.9423C2.61222 13.0576 2.3373 13.1167 2.17449 13.1196ZM1.35807 7.55584C2.35891 7.35742 3.1326 7.10415 3.67914 6.79603C4.22568 6.48791 4.60402 6.13297 4.81415 5.7312C5.02413 5.32038 5.12469 4.86171 5.11585 4.35519C5.11301 4.19238 5.08295 4.02552 5.02568 3.85461C4.96826 3.67466 4.86155 3.52271 4.70558 3.39876C4.5496 3.27481 4.32689 3.21537 4.03745 3.22042C3.29576 3.23336 2.70471 3.58297 2.26429 4.26925C1.83293 4.95536 1.53085 6.05089 1.35807 7.55584Z" fill="#171717"/>
  <path d="M12.9167 12.6606C12.3831 12.6699 11.9589 12.4738 11.6443 12.0721C11.3297 11.6704 11.1667 11.144 11.1553 10.4928C11.1512 10.2576 11.1785 10.0083 11.2372 9.74488C11.3049 9.47227 11.3911 9.22647 11.4958 9.00749C11.4314 8.94528 11.3801 8.86022 11.3421 8.75232C11.3038 8.63536 11.2832 8.49096 11.2802 8.3191C11.2709 7.78544 11.3528 7.29543 11.526 6.84907C11.6992 6.4027 11.9321 6.0141 12.2249 5.68327C12.5176 5.34339 12.8432 5.07985 13.2019 4.89263C13.5696 4.70526 13.9434 4.60826 14.3233 4.60162C14.9474 4.59073 15.4578 4.80802 15.8547 5.25348C16.2513 5.6899 16.4576 6.36488 16.4736 7.27843C16.482 7.75782 16.4181 8.24751 16.2821 8.74752C16.1551 9.24736 15.9735 9.73007 15.7374 10.1956C15.5102 10.661 15.2415 11.0774 14.9313 11.4447C14.6301 11.8119 14.305 12.1071 13.956 12.3303C13.6159 12.5444 13.2695 12.6545 12.9167 12.6606ZM12.3832 8.53057C12.4388 8.60198 12.4675 8.69648 12.4696 8.81406C12.472 8.94974 12.4472 9.08589 12.3953 9.22251C12.3524 9.35898 12.3059 9.54527 12.2558 9.78139C12.2056 10.0175 12.1843 10.3526 12.1919 10.7868C12.1995 11.221 12.3751 11.4351 12.7188 11.4291C13.0987 11.4224 13.4489 11.267 13.7693 10.9629C14.0895 10.6496 14.3721 10.2511 14.617 9.76732C14.8619 9.28351 15.0474 8.76907 15.1736 8.224C15.3087 7.66972 15.372 7.14837 15.3635 6.65994C15.358 6.34336 15.2953 6.12278 15.1755 5.9982C15.0555 5.86458 14.8418 5.80045 14.5343 5.80582C14.2177 5.81135 13.8894 5.92565 13.5495 6.14873C13.2185 6.36261 12.9431 6.65242 12.7233 7.01817C12.5034 7.38392 12.3975 7.79292 12.4054 8.24517C12.4071 8.34467 12.3997 8.4398 12.3832 8.53057Z" fill="#171717"/>
  <path d="M20.4478 12.9363C19.7513 12.9485 19.2002 12.7319 18.7943 12.2866C18.3973 11.8321 18.1916 11.1933 18.1773 10.3702C18.1684 9.86366 18.2259 9.27003 18.3498 8.58928C18.4825 7.89933 18.6507 7.17257 18.8546 6.409C19.0673 5.63622 19.2982 4.87217 19.5474 4.11686C19.7966 3.36154 20.0377 2.66065 20.2707 2.01419C20.5126 1.35852 20.7248 0.811954 20.9071 0.374476C21.0114 0.128365 21.163 0.00357255 21.362 9.91476e-05C21.6334 -0.00463731 21.772 0.160328 21.7778 0.494995C21.7797 0.603535 21.7338 0.826007 21.6402 1.16241C21.5465 1.49881 21.4226 1.91718 21.2685 2.4175C21.1142 2.90877 20.9473 3.45455 20.7678 4.05484C20.5883 4.65513 20.4045 5.27359 20.2166 5.91021C20.0375 6.53764 19.872 7.1603 19.7199 7.77821C19.5677 8.38707 19.4465 8.95919 19.3563 9.49459C19.2661 10.03 19.2243 10.4876 19.231 10.8675C19.2352 11.1117 19.3019 11.3051 19.4311 11.4476C19.5691 11.5809 19.7512 11.6456 19.9773 11.6416C20.3934 11.6344 20.8081 11.5457 21.2213 11.3756C21.6434 11.1964 22.0468 10.9812 22.4315 10.7302C22.816 10.4702 23.1644 10.2153 23.4767 9.96553C23.7979 9.70659 24.0702 9.49374 24.2935 9.32698C24.5166 9.15118 24.6734 9.06248 24.7638 9.06091C24.9628 9.05743 25.0642 9.16424 25.068 9.38132C25.0693 9.45368 24.9993 9.59062 24.858 9.79213C24.7166 9.98461 24.5261 10.2141 24.2865 10.4807C24.0468 10.7473 23.7666 11.0236 23.4459 11.3097C23.1341 11.5865 22.8039 11.8502 22.4554 12.1005C22.1158 12.3417 21.7709 12.5377 21.4207 12.6886C21.0796 12.8484 20.7553 12.931 20.4478 12.9363Z" fill="#171717"/>
  <path d="M28.3269 12.5816C28.1731 12.5843 28.0408 12.5188 27.9299 12.385C27.819 12.2512 27.7612 12.0532 27.7566 11.7909C27.7513 11.4833 27.7888 11.0439 27.8693 10.4724C27.9589 9.90087 28.0904 9.14308 28.264 8.19908C28.0298 8.78223 27.768 9.33419 27.4786 9.85497C27.1981 10.3756 26.8979 10.8015 26.578 11.1329C26.2581 11.4642 25.9262 11.6328 25.5825 11.6388C25.2479 11.6447 24.9471 11.5187 24.6802 11.261C24.4223 11.0031 24.2877 10.544 24.2761 9.88372C24.2697 9.51287 24.2941 9.09625 24.3493 8.63385C24.4044 8.1624 24.4777 7.69516 24.5691 7.23212C24.6606 6.76909 24.7529 6.3558 24.8461 5.99227C24.9391 5.61968 25.0248 5.34675 25.1032 5.17347C25.164 5.02765 25.2257 4.93157 25.2882 4.88524C25.3506 4.82986 25.436 4.80123 25.5446 4.79933C25.6712 4.79712 25.8078 4.84903 25.9544 4.95504C26.101 5.06106 26.1766 5.24069 26.181 5.49395C26.1821 5.55727 26.153 5.70707 26.0938 5.94334C26.0435 6.17042 25.976 6.45208 25.8914 6.78832C25.8157 7.11536 25.7359 7.46962 25.6521 7.85109C25.5683 8.23256 25.498 8.6138 25.4414 8.99479C25.3937 9.37563 25.3727 9.72434 25.3782 10.0409C25.3812 10.2128 25.4017 10.3527 25.4398 10.4606C25.4779 10.5685 25.5693 10.6212 25.714 10.6186C25.8406 10.6164 25.9967 10.487 26.1822 10.2305C26.3768 9.97372 26.5835 9.63535 26.8024 9.21533C27.0301 8.78611 27.2616 8.31158 27.4968 7.79175C27.7411 7.27176 27.9761 6.73836 28.2018 6.19155C28.4365 5.64459 28.6491 5.12515 28.8396 4.63325C28.9091 4.46917 28.9843 4.36833 29.065 4.33073C29.1456 4.28409 29.2357 4.2599 29.3352 4.25816C29.498 4.25532 29.6439 4.32063 29.7729 4.45409C29.9108 4.57836 29.9816 4.74451 29.9852 4.95254C29.9876 5.08822 29.9645 5.32386 29.9161 5.65948C29.8767 5.99493 29.8157 6.38958 29.7332 6.84341C29.6595 7.28804 29.5728 7.76004 29.4729 8.25941C29.3821 8.75862 29.2912 9.25331 29.2002 9.74348C29.1091 10.2246 29.0218 10.665 28.9383 11.0645C28.8638 11.4639 28.8016 11.7862 28.7516 12.0314C28.7103 12.2583 28.6495 12.4041 28.5692 12.4688C28.4981 12.5425 28.4173 12.5801 28.3269 12.5816Z" fill="#171717"/>
  <path d="M32.6284 11.8687C32.3661 11.8733 32.1284 11.7281 31.9151 11.4333C31.7019 11.1384 31.5911 10.7558 31.5829 10.2855C31.5739 9.76991 31.6321 9.21698 31.7575 8.62668C31.892 8.03623 32.058 7.43618 32.2554 6.82653C32.4527 6.20783 32.6459 5.61183 32.8349 5.03852C32.8781 4.92014 32.9399 4.83311 33.0204 4.77742C33.1097 4.71252 33.2449 4.6785 33.4258 4.67534C33.7514 4.66966 33.917 4.8251 33.9225 5.14168C33.9237 5.21404 33.8904 5.37748 33.8225 5.63201C33.7545 5.88653 33.665 6.20024 33.5539 6.57314C33.4518 6.94588 33.3458 7.35036 33.2358 7.78658C33.1256 8.21375 33.0291 8.6452 32.9462 9.08094C32.8633 9.51668 32.8071 9.92029 32.7773 10.2918C32.9194 10.1355 33.0781 9.89747 33.2535 9.57773C33.4379 9.25784 33.6352 8.89701 33.8453 8.49524C34.0553 8.08442 34.2743 7.67345 34.5024 7.26231C34.7303 6.84214 34.9588 6.45814 35.188 6.11032C35.426 5.7533 35.6563 5.4688 35.8788 5.25682C36.1102 5.03563 36.3254 4.9233 36.5244 4.91983C36.8138 4.91478 37.0596 5.00097 37.2618 5.17839C37.4728 5.34662 37.6364 5.65139 37.7527 6.0927C37.8779 6.52481 37.9474 7.13885 37.9613 7.93481C37.9687 8.35993 38.0164 8.7572 38.1043 9.12663C38.2012 9.49589 38.3466 9.79193 38.5405 10.0147C38.7433 10.2284 38.9984 10.3325 39.306 10.3271C39.7673 10.3191 40.1774 10.2305 40.5363 10.0613C40.8951 9.88316 41.2039 9.68777 41.4626 9.47516C41.7301 9.25334 41.9529 9.05945 42.131 8.89348C42.3089 8.71846 42.4476 8.63009 42.5471 8.62835C42.7551 8.62472 42.861 8.73145 42.8648 8.94853C42.8664 9.03898 42.8011 9.18488 42.6689 9.38624C42.5456 9.5784 42.3685 9.79864 42.1375 10.047C41.9155 10.2861 41.6572 10.5213 41.3627 10.7526C41.0771 10.9748 40.7682 11.1611 40.436 11.3117C40.1129 11.4621 39.784 11.5402 39.4494 11.5461C38.8253 11.5569 38.3121 11.4438 37.9098 11.2065C37.5166 10.9691 37.2202 10.5716 37.0204 10.0141C36.8298 9.4565 36.7262 8.70734 36.7098 7.76665C36.7008 7.25108 36.6626 6.87627 36.5951 6.6422C36.5366 6.39893 36.4298 6.23794 36.2746 6.15922C36.1693 6.35106 36.0339 6.62486 35.8682 6.98061C35.7023 7.32732 35.51 7.71521 35.2913 8.14428C35.0817 8.57318 34.8585 9.00685 34.6219 9.44527C34.3941 9.87449 34.1613 10.2721 33.9234 10.6382C33.6855 11.0043 33.4555 11.3023 33.2333 11.5324C33.011 11.7534 32.8093 11.8655 32.6284 11.8687Z" fill="#171717"/>
  <path d="M50.9795 12.512C50.69 12.517 50.3858 12.4499 50.0667 12.3107C49.7568 12.1804 49.4905 11.9589 49.2679 11.6461C49.0542 11.3241 48.9427 10.8963 48.9334 10.3626C48.9225 9.73852 48.9652 9.07729 49.0616 8.37892C49.158 7.68056 49.286 6.98165 49.4457 6.28218C49.6143 5.57351 49.8016 4.9007 50.0076 4.26376C50.2137 3.62681 50.4209 3.05771 50.6293 2.55644C50.8467 2.05502 51.048 1.66245 51.233 1.37874C51.4179 1.08598 51.5737 0.938497 51.7003 0.936287C51.8722 0.933287 52.0181 0.998599 52.138 1.13222C52.267 1.26569 52.3337 1.45453 52.3379 1.69874C52.3397 1.79824 52.285 2.03444 52.1739 2.40734C52.0626 2.77119 51.9213 3.23057 51.75 3.78548C51.5788 4.34038 51.3947 4.94075 51.1979 5.58658C51.0101 6.23225 50.8315 6.88229 50.6619 7.53669C50.4924 8.19109 50.3539 8.80876 50.2464 9.38969C50.1389 9.97063 50.0887 10.4646 50.0958 10.8716C50.0979 10.9892 50.1315 11.1017 50.1967 11.2092C50.2618 11.3076 50.3667 11.3555 50.5114 11.353C50.7104 11.3495 50.9945 11.2993 51.3638 11.2024C51.7421 11.1053 52.1517 10.9896 52.5927 10.8552C53.0336 10.7118 53.4564 10.5732 53.8612 10.4395C54.266 10.3057 54.6079 10.1912 54.8867 10.0959C55.1655 10.0005 55.323 9.95252 55.3592 9.95189C55.4677 9.95 55.5587 9.98007 55.6322 10.0421C55.7055 10.0951 55.7432 10.1804 55.7452 10.298C55.7478 10.4427 55.6421 10.612 55.4284 10.8057C55.2236 10.9993 54.9466 11.1941 54.5971 11.3902C54.2567 11.5862 53.8753 11.7647 53.4529 11.9259C53.0306 12.0962 52.6033 12.2348 52.1708 12.3419C51.7475 12.4488 51.3503 12.5055 50.9795 12.512Z" fill="#171717"/>
  <path d="M57.5225 11.8142C57.3507 11.8172 57.1958 11.7565 57.0579 11.6323C56.9199 11.499 56.8484 11.2921 56.8435 11.0117C56.8401 10.8127 56.8624 10.5364 56.9105 10.1827C56.9584 9.81993 57.0239 9.4252 57.107 8.99851C57.19 8.57181 57.2776 8.14956 57.3699 7.73175C57.471 7.30474 57.5729 6.92295 57.6756 6.58639C57.7783 6.24983 57.8689 5.99943 57.9475 5.8352C58.0176 5.70731 58.084 5.62472 58.1467 5.58743C58.2185 5.54999 58.286 5.53071 58.3493 5.52961C58.4759 5.5274 58.5852 5.56621 58.6771 5.64603C58.778 5.7257 58.8305 5.88312 58.8346 6.11829C58.8369 6.25397 58.8138 6.48057 58.765 6.79809C58.7252 7.10641 58.6682 7.46932 58.594 7.88681C58.5288 8.2951 58.4547 8.71712 58.3718 9.15286C58.2978 9.5794 58.2235 9.98785 58.1489 10.3782C58.0743 10.7686 58.0167 11.0953 57.976 11.3584C57.9424 11.5037 57.881 11.6179 57.792 11.7009C57.7119 11.7747 57.622 11.8124 57.5225 11.8142ZM58.7212 4.28809C58.5132 4.29172 58.3131 4.23188 58.1209 4.10857C57.9378 3.98509 57.8438 3.78316 57.8389 3.50276C57.8348 3.26759 57.8858 3.0767 57.9918 2.93008C58.1068 2.78331 58.2407 2.67692 58.3934 2.61092C58.5549 2.53572 58.6945 2.49709 58.8121 2.49504C58.9296 2.49299 59.0613 2.51784 59.2069 2.56958C59.3615 2.61212 59.4942 2.70028 59.6051 2.83406C59.7159 2.9588 59.7735 3.1478 59.7779 3.40106C59.7809 3.57291 59.7248 3.72771 59.6096 3.86544C59.4942 3.99412 59.3512 4.09614 59.1806 4.1715C59.0191 4.2467 58.8659 4.28557 58.7212 4.28809Z" fill="#171717"/>
</svg>