<svg viewBox="0 0 29 28" fill="none" xmlns="http://www.w3.org/2000/svg">
<path d="M11.8447 12.6055L11.3457 15.3604C11.3415 15.3593 11.3373 15.3575 11.333 15.3564L11.3262 15.3955L5.54883 20.4482H0.25C1.6575 17.4118 3.77079 15.3783 6.71973 14.001C6.71973 14.001 6.72192 14 6.72559 13.999C4.27988 12.6217 2.90928 10.5878 2.6084 7.55273H7.90918L11.8447 12.6055ZM20.0479 12.6055L19.5479 15.3604C19.5426 15.359 19.5375 15.3568 19.5322 15.3555L19.5254 15.3955L13.749 20.4482H8.4502C9.85772 17.4118 11.9709 15.3783 14.9199 14.001C14.9199 14.001 14.9226 13.9995 14.9277 13.998C12.4825 12.6208 11.1114 10.5875 10.8105 7.55273H16.1113L20.0479 12.6055ZM28.2461 12.6055L27.7471 15.3604C27.7419 15.359 27.7367 15.3568 27.7314 15.3555L27.7246 15.3955L21.9473 20.4482H16.6484C18.0559 17.4118 20.1692 15.3783 23.1182 14.001C23.1182 14.001 23.1209 13.9994 23.126 13.998C20.6808 12.6208 19.3098 10.5874 19.0088 7.55273H24.3096L28.2461 12.6055Z" fill="#615E5E"/>
<path d="M11.8447 12.6055L12.0907 12.65C12.1034 12.58 12.0857 12.508 12.042 12.4518L11.8447 12.6055ZM11.3457 15.3604L11.2843 15.6027C11.3515 15.6197 11.4227 15.6081 11.481 15.5706C11.5392 15.5331 11.5793 15.4731 11.5917 15.4049L11.3457 15.3604ZM11.333 15.3564L11.3947 15.1142C11.3272 15.097 11.2557 15.1087 11.1972 15.1465C11.1388 15.1843 11.0987 15.2448 11.0868 15.3134L11.333 15.3564ZM11.3262 15.3955L11.4908 15.5837C11.5338 15.5461 11.5626 15.4949 11.5724 15.4386L11.3262 15.3955ZM5.54883 20.4482V20.6982C5.60936 20.6982 5.66784 20.6763 5.71341 20.6364L5.54883 20.4482ZM0.25 20.4482L0.0231828 20.3431C-0.0127025 20.4205 -0.00662398 20.5109 0.0393054 20.5828C0.0852347 20.6547 0.164671 20.6982 0.25 20.6982L0.25 20.4482ZM6.71973 14.001L6.62159 13.7709L6.61393 13.7745L6.71973 14.001ZM6.72559 13.999L6.79248 14.2399C6.88998 14.2128 6.96154 14.1297 6.97376 14.0292C6.98597 13.9288 6.93643 13.8308 6.84826 13.7812L6.72559 13.999ZM2.6084 7.55273V7.30273C2.5378 7.30273 2.4705 7.33258 2.42311 7.3849C2.37572 7.43723 2.35265 7.50715 2.35962 7.5774L2.6084 7.55273ZM7.90918 7.55273L8.10641 7.39911C8.05904 7.3383 7.98627 7.30273 7.90918 7.30273V7.55273ZM20.0479 12.6055L20.2938 12.6501C20.3065 12.5801 20.2888 12.508 20.2451 12.4518L20.0479 12.6055ZM19.5479 15.3604L19.4864 15.6027C19.5536 15.6197 19.6248 15.6081 19.6831 15.5706C19.7414 15.5331 19.7815 15.4732 19.7938 15.405L19.5479 15.3604ZM19.5322 15.3555L19.594 15.1132C19.5263 15.096 19.4546 15.1078 19.396 15.1458C19.3375 15.1838 19.2975 15.2446 19.2858 15.3134L19.5322 15.3555ZM19.5254 15.3955L19.69 15.5837C19.7332 15.5458 19.7622 15.4942 19.7718 15.4376L19.5254 15.3955ZM13.749 20.4482V20.6982C13.8096 20.6982 13.8681 20.6763 13.9136 20.6364L13.749 20.4482ZM8.4502 20.4482L8.22338 20.3431C8.18749 20.4205 8.19357 20.5109 8.2395 20.5828C8.28543 20.6547 8.36487 20.6982 8.4502 20.6982V20.4482ZM14.9199 14.001L15.0257 14.2275C15.0316 14.2247 15.0375 14.2217 15.0432 14.2185L14.9199 14.001ZM14.9277 13.998L14.9946 14.2389C15.0921 14.2119 15.1637 14.1287 15.1759 14.0282C15.1881 13.9278 15.1386 13.8299 15.0504 13.7802L14.9277 13.998ZM10.8105 7.55273V7.30273C10.74 7.30273 10.6726 7.33258 10.6253 7.3849C10.5779 7.43723 10.5548 7.50715 10.5618 7.5774L10.8105 7.55273ZM16.1113 7.55273L16.3085 7.39909C16.2612 7.33829 16.1884 7.30273 16.1113 7.30273V7.55273ZM28.2461 12.6055L28.4921 12.65C28.5048 12.58 28.487 12.5079 28.4433 12.4518L28.2461 12.6055ZM27.7471 15.3604L27.6857 15.6027C27.7528 15.6197 27.8241 15.6081 27.8823 15.5706C27.9406 15.5331 27.9807 15.4731 27.9931 15.4049L27.7471 15.3604ZM27.7314 15.3555L27.7932 15.1132C27.7255 15.096 27.6538 15.1078 27.5953 15.1458C27.5367 15.1838 27.4968 15.2446 27.485 15.3134L27.7314 15.3555ZM27.7246 15.3955L27.8892 15.5837C27.9325 15.5458 27.9614 15.4942 27.971 15.4376L27.7246 15.3955ZM21.9473 20.4482V20.6982C22.0078 20.6982 22.0663 20.6763 22.1118 20.6364L21.9473 20.4482ZM16.6484 20.4482L16.4216 20.3431C16.3857 20.4205 16.3918 20.5109 16.4377 20.5828C16.4837 20.6547 16.5631 20.6982 16.6484 20.6982V20.4482ZM23.1182 14.001L23.224 14.2275C23.229 14.2251 23.234 14.2226 23.2388 14.2199L23.1182 14.001ZM23.126 13.998L23.1929 14.2389C23.2904 14.2119 23.3619 14.1287 23.3741 14.0282C23.3864 13.9278 23.3368 13.8299 23.2487 13.7802L23.126 13.998ZM19.0088 7.55273V7.30273C18.9382 7.30273 18.8709 7.33258 18.8235 7.38491C18.7761 7.43723 18.753 7.50716 18.76 7.57741L19.0088 7.55273ZM24.3096 7.55273L24.5068 7.39909C24.4594 7.33829 24.3866 7.30273 24.3096 7.30273V7.55273ZM11.8447 12.6055L11.5987 12.5609L11.0997 15.3158L11.3457 15.3604L11.5917 15.4049L12.0907 12.65L11.8447 12.6055ZM11.3457 15.3604L11.4071 15.118C11.4121 15.1193 11.4158 15.1204 11.4175 15.1209C11.419 15.1214 11.4201 15.1218 11.4187 15.1213C11.418 15.1211 11.4148 15.12 11.4112 15.1189C11.4074 15.1177 11.4016 15.1159 11.3947 15.1142L11.333 15.3564L11.2713 15.5987C11.2665 15.5975 11.2629 15.5964 11.2612 15.5958C11.2597 15.5954 11.2586 15.595 11.2601 15.5955C11.2608 15.5957 11.264 15.5968 11.2676 15.5979C11.2714 15.5991 11.2772 15.6009 11.2843 15.6027L11.3457 15.3604ZM11.333 15.3564L11.0868 15.3134L11.0799 15.3524L11.3262 15.3955L11.5724 15.4386L11.5793 15.3995L11.333 15.3564ZM11.3262 15.3955L11.1616 15.2073L5.38425 20.2601L5.54883 20.4482L5.71341 20.6364L11.4908 15.5837L11.3262 15.3955ZM5.54883 20.4482V20.1982H0.25V20.4482V20.6982H5.54883V20.4482ZM0.25 20.4482L0.476817 20.5534C1.85844 17.5728 3.92755 15.581 6.82552 14.2275L6.71973 14.001L6.61393 13.7745C3.61403 15.1756 1.45656 17.2508 0.0231828 20.3431L0.25 20.4482ZM6.71973 14.001C6.8178 14.2309 6.81778 14.2309 6.81776 14.231C6.81775 14.231 6.81773 14.231 6.81771 14.231C6.81768 14.231 6.81765 14.231 6.81761 14.231C6.81755 14.231 6.81749 14.2311 6.81743 14.2311C6.8173 14.2311 6.81717 14.2312 6.81705 14.2313C6.8168 14.2314 6.81654 14.2315 6.81629 14.2316C6.81579 14.2318 6.81529 14.232 6.81479 14.2322C6.81378 14.2326 6.81278 14.233 6.81178 14.2334C6.80977 14.2342 6.80774 14.235 6.80569 14.2357C6.80161 14.2372 6.79721 14.2386 6.79248 14.2399L6.72559 13.999L6.65869 13.7581C6.65029 13.7605 6.64296 13.7629 6.63687 13.7651C6.63381 13.7662 6.63101 13.7672 6.62848 13.7682C6.62721 13.7687 6.62601 13.7692 6.62487 13.7697C6.6243 13.7699 6.62375 13.7701 6.62321 13.7704C6.62294 13.7705 6.62268 13.7706 6.62242 13.7707C6.62229 13.7707 6.62216 13.7708 6.62203 13.7709C6.62197 13.7709 6.6219 13.7709 6.62184 13.7709C6.62181 13.771 6.62178 13.771 6.62174 13.771C6.62173 13.771 6.6217 13.771 6.6217 13.771C6.62167 13.771 6.62165 13.771 6.71973 14.001ZM6.72559 13.999L6.84826 13.7812C4.47487 12.4446 3.15017 10.4836 2.85718 7.52807L2.6084 7.55273L2.35962 7.5774C2.66839 10.6921 4.08489 12.7988 6.60291 14.2169L6.72559 13.999ZM2.6084 7.55273V7.80273H7.90918V7.55273V7.30273H2.6084V7.55273ZM7.90918 7.55273L7.71195 7.70636L11.6475 12.7591L11.8447 12.6055L12.042 12.4518L8.10641 7.39911L7.90918 7.55273ZM20.0479 12.6055L19.8019 12.5608L19.3019 15.3157L19.5479 15.3604L19.7938 15.405L20.2938 12.6501L20.0479 12.6055ZM19.5479 15.3604L19.6093 15.118C19.6145 15.1193 19.6183 15.1205 19.6201 15.1211C19.6216 15.1216 19.6227 15.122 19.621 15.1214C19.6201 15.1211 19.6165 15.1198 19.6124 15.1185C19.608 15.1171 19.6016 15.1152 19.594 15.1132L19.5322 15.3555L19.4705 15.5977C19.4655 15.5965 19.4617 15.5953 19.46 15.5947C19.4585 15.5942 19.4574 15.5939 19.4591 15.5944C19.46 15.5948 19.4637 15.596 19.4678 15.5973C19.4722 15.5987 19.4786 15.6007 19.4864 15.6027L19.5479 15.3604ZM19.5322 15.3555L19.2858 15.3134L19.279 15.3534L19.5254 15.3955L19.7718 15.4376L19.7787 15.3975L19.5322 15.3555ZM19.5254 15.3955L19.3608 15.2073L13.5844 20.2601L13.749 20.4482L13.9136 20.6364L19.69 15.5837L19.5254 15.3955ZM13.749 20.4482V20.1982H8.4502V20.4482V20.6982H13.749V20.4482ZM8.4502 20.4482L8.67701 20.5534C10.0587 17.5727 12.1277 15.581 15.0257 14.2275L14.9199 14.001L14.8141 13.7745C11.8141 15.1756 9.65678 17.2508 8.22338 20.3431L8.4502 20.4482ZM14.9199 14.001C15.0432 14.2185 15.0431 14.2185 15.0431 14.2185C15.0431 14.2185 15.043 14.2186 15.043 14.2186C15.0429 14.2186 15.0429 14.2187 15.0428 14.2187C15.0427 14.2188 15.0426 14.2188 15.0424 14.2189C15.0422 14.219 15.0419 14.2192 15.0417 14.2193C15.0412 14.2196 15.0407 14.2199 15.0402 14.2201C15.0393 14.2207 15.0383 14.2212 15.0373 14.2217C15.0353 14.2228 15.0333 14.2238 15.0314 14.2248C15.0274 14.2267 15.0234 14.2286 15.0193 14.2303C15.0112 14.2337 15.003 14.2366 14.9946 14.2389L14.9277 13.998L14.8608 13.7572C14.8473 13.7609 14.8351 13.7653 14.8244 13.7698C14.8191 13.7721 14.8141 13.7744 14.8095 13.7767C14.8072 13.7778 14.8049 13.779 14.8028 13.7801C14.8017 13.7807 14.8007 13.7812 14.7997 13.7818C14.7992 13.7821 14.7987 13.7824 14.7982 13.7826C14.7979 13.7828 14.7977 13.7829 14.7974 13.783C14.7973 13.7831 14.7972 13.7832 14.797 13.7833C14.797 13.7833 14.7969 13.7833 14.7969 13.7834C14.7968 13.7834 14.7968 13.7834 14.7968 13.7834C14.7967 13.7834 14.7967 13.7835 14.9199 14.001ZM14.9277 13.998L15.0504 13.7802C12.6774 12.4436 11.3523 10.4832 11.0593 7.52807L10.8105 7.55273L10.5618 7.5774C10.8705 10.6918 12.2876 12.7979 14.805 14.2159L14.9277 13.998ZM10.8105 7.55273V7.80273H16.1113V7.55273V7.30273H10.8105V7.55273ZM16.1113 7.55273L15.9141 7.70638L19.8506 12.7591L20.0479 12.6055L20.2451 12.4518L16.3085 7.39909L16.1113 7.55273ZM28.2461 12.6055L28.0001 12.5609L27.5011 15.3158L27.7471 15.3604L27.9931 15.4049L28.4921 12.65L28.2461 12.6055ZM27.7471 15.3604L27.8085 15.118C27.8137 15.1193 27.8176 15.1206 27.8193 15.1211C27.8208 15.1216 27.8218 15.1219 27.8201 15.1213C27.8192 15.121 27.8156 15.1198 27.8115 15.1185C27.8073 15.1171 27.8009 15.1152 27.7932 15.1132L27.7314 15.3555L27.6697 15.5977C27.6646 15.5964 27.6609 15.5953 27.6592 15.5947C27.6578 15.5943 27.6568 15.5939 27.6585 15.5945C27.6594 15.5948 27.663 15.5961 27.6671 15.5974C27.6713 15.5987 27.6778 15.6007 27.6857 15.6027L27.7471 15.3604ZM27.7314 15.3555L27.485 15.3134L27.4782 15.3534L27.7246 15.3955L27.971 15.4376L27.9779 15.3975L27.7314 15.3555ZM27.7246 15.3955L27.56 15.2073L21.7827 20.2601L21.9473 20.4482L22.1118 20.6364L27.8892 15.5837L27.7246 15.3955ZM21.9473 20.4482V20.1982H16.6484V20.4482V20.6982H21.9473V20.4482ZM16.6484 20.4482L16.8753 20.5534C18.2569 17.5728 20.326 15.581 23.224 14.2275L23.1182 14.001L23.0124 13.7745C20.0125 15.1756 17.855 17.2508 16.4216 20.3431L16.6484 20.4482ZM23.1182 14.001C23.2388 14.2199 23.2388 14.22 23.2387 14.22C23.2387 14.22 23.2387 14.22 23.2387 14.22C23.2386 14.22 23.2386 14.2201 23.2385 14.2201C23.2384 14.2202 23.2383 14.2202 23.2382 14.2203C23.238 14.2204 23.2377 14.2205 23.2375 14.2206C23.2371 14.2209 23.2367 14.2211 23.2362 14.2213C23.2353 14.2218 23.2345 14.2223 23.2336 14.2227C23.2318 14.2236 23.2301 14.2245 23.2283 14.2254C23.2247 14.2272 23.221 14.2288 23.2172 14.2304C23.2097 14.2336 23.2016 14.2365 23.1929 14.2389L23.126 13.998L23.0591 13.7572C23.0453 13.761 23.0333 13.7654 23.0231 13.7696C23.018 13.7718 23.0133 13.7739 23.0091 13.776C23.007 13.7771 23.0049 13.7781 23.003 13.7791C23.002 13.7796 23.0011 13.7801 23.0002 13.7806C22.9997 13.7808 22.9993 13.7811 22.9988 13.7813C22.9986 13.7814 22.9984 13.7815 22.9982 13.7817C22.998 13.7817 22.9979 13.7818 22.9978 13.7818C22.9978 13.7819 22.9977 13.7819 22.9977 13.7819C22.9976 13.7819 22.9976 13.782 22.9976 13.782C22.9975 13.782 22.9975 13.782 23.1182 14.001ZM23.126 13.998L23.2487 13.7802C20.8758 12.4436 19.5507 10.4831 19.2576 7.52806L19.0088 7.55273L18.76 7.57741C19.0689 10.6917 20.4859 12.7979 23.0033 14.2159L23.126 13.998ZM19.0088 7.55273V7.80273H24.3096V7.55273V7.30273H19.0088V7.55273ZM24.3096 7.55273L24.1124 7.70638L28.0489 12.7591L28.2461 12.6055L28.4433 12.4518L24.5068 7.39909L24.3096 7.55273Z" fill="#E3E2E2"/>
</svg>
