<svg width="21" height="20" viewBox="0 0 21 20" fill="none" xmlns="http://www.w3.org/2000/svg">
<path d="M0 2.5C0 1.11929 1.11929 0 2.5 0H5.36295C6.02269 0 6.65568 0.260778 7.12396 0.725495L19.7612 13.2666C20.2342 13.736 20.5002 14.3748 20.5002 15.0411V17.5C20.5002 18.8807 19.381 20 18.0002 20H15.5412C14.8749 20 14.2363 19.7341 13.7669 19.2613L0.725754 6.124C0.260877 5.6557 0 5.0226 0 4.36274V2.5Z" fill="#615E5E"/>
<path d="M18.0002 0H15.3287C13.5469 0 12.6545 2.15428 13.9145 3.41421L17.086 6.58579C18.346 7.84572 20.5002 6.95338 20.5002 5.17157V2.5C20.5002 1.11929 19.381 0 18.0002 0Z" fill="#B0AEAE"/>
<path d="M2.00024 20L5.17182 20C6.95363 20 7.84596 17.8457 6.58603 16.5858L3.41445 13.4142C2.15452 12.1543 0.000243795 13.0466 0.000243639 14.8284L0.000243362 18C0.000243265 19.1046 0.895674 20 2.00024 20Z" fill="#B0AEAE"/>
</svg>
