<svg width="99" height="16" viewBox="0 0 99 16" fill="none" xmlns="http://www.w3.org/2000/svg">
<path d="M91.9199 0C96.5158 1.37273e-05 99.4576 3.7225 98.6475 8.24609C97.9462 12.4097 94.7252 15.1816 90.4902 15.1816C85.8943 15.1816 82.9526 11.4592 83.7627 6.93555C84.4912 2.77183 87.6576 0 91.9199 0ZM53.0156 0.197266C54.7246 0.197266 56.0456 0.842507 56.9648 2.32324L57.1895 2.26855C57.2167 1.65046 57.3051 1.20857 57.4141 0.536133H62.0371L59.5117 14.6846H54.915C55.024 14.0667 55.1402 13.6248 55.2832 13.0068L55.0312 12.9258C53.8261 14.4065 52.3686 14.9971 50.9932 14.9971C46.9013 14.9969 45.1036 11.0849 45.8662 6.83301V6.81934C46.5131 3.07682 49.1483 0.197313 53.0156 0.197266ZM38.3516 9.28516L42.7305 0.529297H47.6934V0.583984L39.8701 14.6777H35.0225L32.2168 0.583984L32.2441 0.529297H37.1191L38.3516 9.28516ZM79.3906 0.19043C82.7268 0.190468 83.9322 2.92758 83.374 6.22852L81.8623 14.6719H77.1504L78.5801 6.64355C78.8048 5.33263 78.3554 4.4082 77.123 4.4082C75.9724 4.40828 75.2707 5.27806 75.0801 6.44629L73.623 14.665H68.9727L70.376 6.63672C70.6279 5.32579 70.1506 4.40137 68.9727 4.40137C67.7949 4.40155 67.0938 5.29867 66.8691 6.47363L65.4395 14.665H60.7275L63.2471 0.530273H67.8428C67.7339 1.17526 67.6184 1.62354 67.4482 2.26172L67.6729 2.31641C68.6805 0.971714 70.001 0.190563 71.6553 0.19043C73.3098 0.19043 74.4882 0.971692 74.9648 2.34375H75.2715C76.2792 0.863014 77.8246 0.19043 79.3906 0.19043ZM12.4521 6.09375L11.916 9.05176C11.9112 9.05052 11.9063 9.04911 11.9014 9.04785L11.8945 9.08789L5.69141 14.5146H0C1.51155 11.2537 3.78123 9.06894 6.94824 7.58984C6.94824 7.58984 6.94931 7.58939 6.95117 7.58887C4.32675 6.10983 2.85617 3.92502 2.5332 0.666992H8.22559L12.4521 6.09375ZM21.2607 6.09375L20.7246 9.05176C20.7189 9.05031 20.7128 9.04836 20.707 9.04688L20.7002 9.08789L14.4971 14.5146H8.80664C10.3182 11.2537 12.5878 9.06894 15.7549 7.58984C15.7555 7.58967 15.7567 7.58848 15.7588 7.58789C13.135 6.10893 11.6639 3.9254 11.3408 0.667969H17.0332L21.2607 6.09375ZM30.0654 6.09375L29.5293 9.05176C29.5236 9.0503 29.5175 9.04836 29.5117 9.04688L29.5049 9.08789L23.3018 14.5146H17.6104C19.1219 11.2537 21.3915 9.06894 24.5586 7.58984C24.5586 7.58984 24.5602 7.58881 24.5635 7.58789C21.9396 6.10895 20.4687 3.92537 20.1455 0.667969H25.8379L30.0654 6.09375ZM91.5859 4.25195C89.7342 4.2521 88.5838 5.50898 88.2773 7.3291C87.9097 9.25813 88.9516 10.9365 90.7695 10.9365C92.5872 10.9364 93.799 9.65231 94.1055 7.85938H94.1123C94.48 5.93034 93.4379 4.25195 91.5859 4.25195ZM53.6357 4.3877C51.954 4.3877 50.7752 5.61708 50.4688 7.26758C50.1351 9.22367 51.1159 10.7928 52.9609 10.793C54.6427 10.793 55.8478 9.56328 56.127 7.8584C56.4945 5.87529 55.5078 4.38792 53.6357 4.3877Z" fill="#292929"/>
</svg>
